<svg version="1.1" id="Layer_1" xmlns="http://www.w3.org/2000/svg" xmlns:xlink="http://www.w3.org/1999/xlink" x="0px" y="0px"
	 width="100%" viewBox="0 0 1080 1080" enable-background="new 0 0 1080 1080" xml:space="preserve">
<path fill="#FFFFFF" opacity="1.000000" stroke="none" 
	d="
M872.000000,1.000000 
	C941.646912,1.000000 1011.293762,1.000000 1080.970337,1.000000 
	C1080.970337,360.877930 1080.970337,720.755859 1080.970337,1081.000000 
	C1011.642212,1081.000000 942.283752,1081.000000 872.462646,1080.531372 
	C871.948425,1069.684570 871.896790,1059.306519 871.919983,1048.479736 
	C871.997253,1040.732178 872.001892,1033.433105 872.001892,1026.134155 
	C872.002197,700.583252 872.002319,375.032379 871.995300,49.481472 
	C871.995300,47.652901 871.893311,45.824329 871.913086,43.573608 
	C871.933350,41.444752 871.879517,39.738049 871.903931,37.581406 
	C871.934937,34.090805 871.887817,31.050140 871.913330,27.544348 
	C871.990662,18.386147 871.995300,9.693073 872.000000,1.000000 
z"/>
<path fill="#FFFFFF" opacity="1.000000" stroke="none" 
	d="
M209.000000,1081.000000 
	C139.686386,1081.000000 70.372765,1081.000000 1.029575,1081.000000 
	C1.029575,721.122070 1.029575,361.244171 1.029575,1.000000 
	C70.024483,1.000000 139.049606,1.000000 208.537125,1.468657 
	C209.056335,11.622754 209.113174,21.308193 209.095306,31.451511 
	C209.007294,32.908909 208.982269,33.908424 208.982285,34.907944 
	C208.985855,361.950012 208.989273,688.992065 209.003342,1016.034119 
	C209.003891,1029.025024 209.106186,1042.015991 209.087936,1055.470093 
	C209.009872,1064.288818 209.004944,1072.644409 209.000000,1081.000000 
z"/>
<path fill="#0212A0" opacity="1.000000" stroke="none" 
	d="
M209.161072,1055.006958 
	C209.106186,1042.015991 209.003891,1029.025024 209.003342,1016.034119 
	C208.989273,688.992065 208.985855,361.950012 208.982285,34.907944 
	C208.982269,33.908424 209.007294,32.908909 209.551468,31.453289 
	C213.556931,30.997328 217.034042,31.070654 220.504700,30.953474 
	C221.560211,30.917835 223.018082,30.688095 223.574982,29.982000 
	C226.925354,25.734013 228.784607,21.098694 228.098633,15.380733 
	C227.531235,10.651281 227.993790,5.798267 228.000000,1.000000 
	C230.700180,1.000000 233.400345,1.000000 236.560242,1.466488 
	C237.019974,6.406038 237.019974,10.879101 237.019974,15.352163 
	C237.679977,15.354093 238.339996,15.356021 239.000000,15.357949 
	C239.000000,10.571966 239.000000,5.785983 239.000000,1.000000 
	C444.024902,1.000000 649.049805,1.000000 854.536133,1.468655 
	C854.997559,8.597657 855.285950,15.274796 854.899475,21.912640 
	C854.626831,26.596205 855.866028,28.640923 860.859680,28.092684 
	C864.479492,27.695274 868.177551,28.011482 871.840698,28.009476 
	C871.887817,31.050140 871.934937,34.090805 871.478882,37.576286 
	C868.435791,38.833630 863.766052,36.066914 863.604126,40.337955 
	C863.428467,44.968758 868.145996,43.912502 871.341187,43.998878 
	C871.506958,44.003361 871.672974,43.997047 871.838867,43.995758 
	C871.893311,45.824329 871.995300,47.652901 871.995300,49.481472 
	C872.002319,375.032379 872.002197,700.583252 872.001892,1026.134155 
	C872.001892,1033.433105 871.997253,1040.732178 871.464478,1048.489746 
	C868.776794,1048.950684 866.619446,1048.954468 864.462036,1048.955078 
	C857.261719,1048.957275 855.981995,1050.249512 855.977661,1057.600830 
	C855.973022,1065.400513 855.991577,1073.200317 856.000000,1081.000000 
	C649.641724,1081.000000 443.283508,1081.000000 236.450592,1080.532104 
	C235.975906,1074.579224 235.975906,1069.094238 235.975906,1063.609253 
	C235.317276,1063.609497 234.658630,1063.609741 234.000000,1063.609863 
	C234.000000,1069.406616 234.000000,1075.203247 234.000000,1081.000000 
	C231.958328,1081.000000 229.916656,1081.000000 227.437744,1080.531372 
	C227.000488,1071.538818 227.000488,1063.014893 227.000488,1055.006958 
	C220.586578,1055.006958 214.873825,1055.006958 209.161072,1055.006958 
M804.721313,1058.811157 
	C833.482056,1053.329468 850.938721,1032.527954 850.940125,1003.534424 
	C850.955017,694.913452 850.956116,386.292511 850.939270,77.671577 
	C850.937500,45.275520 827.925415,22.052496 795.624084,22.042990 
	C625.482605,21.992916 455.341156,22.005480 285.199707,22.088209 
	C280.245544,22.090616 275.106110,22.450794 270.369385,23.775316 
	C246.906815,30.336094 233.820053,46.250530 229.069855,70.227531 
	C228.712845,72.254951 228.043396,74.282333 228.043091,76.309807 
	C227.996826,385.691101 227.998810,695.072388 227.999908,1004.453674 
	C227.999908,1005.786316 227.794739,1007.172058 228.096802,1008.434509 
	C228.328583,1009.403137 229.209625,1010.216370 230.062622,1011.742249 
	C230.578598,1014.346375 230.882690,1017.014282 231.643692,1019.544739 
	C238.464890,1042.226318 254.063156,1054.903931 277.216858,1059.894897 
	C279.236969,1060.263184 281.257019,1060.953613 283.277222,1060.954224 
	C454.695801,1061.003784 626.114380,1061.000122 797.532959,1060.998291 
	C799.031738,1060.998291 800.570984,1061.170532 802.012695,1060.876465 
	C802.759033,1060.724243 803.332581,1059.724731 804.721313,1058.811157 
z"/>
<path fill="#000080" opacity="1.000000" stroke="none" 
	d="
M227.531738,1.000000 
	C227.993790,5.798267 227.531235,10.651281 228.098633,15.380733 
	C228.784607,21.098694 226.925354,25.734013 223.574982,29.982000 
	C223.018082,30.688095 221.560211,30.917835 220.504700,30.953474 
	C217.034042,31.070654 213.556931,30.997328 209.626160,30.995411 
	C209.113174,21.308193 209.056335,11.622754 208.999756,1.468657 
	C215.021149,1.000000 221.042297,1.000000 227.531738,1.000000 
z"/>
<path fill="#0000FF" opacity="1.000000" stroke="none" 
	d="
M856.466919,1081.000000 
	C855.991577,1073.200317 855.973022,1065.400513 855.977661,1057.600830 
	C855.981995,1050.249512 857.261719,1048.957275 864.462036,1048.955078 
	C866.619446,1048.954468 868.776794,1048.950684 871.389648,1048.938354 
	C871.896790,1059.306519 871.948425,1069.684570 872.000000,1080.531372 
	C866.977905,1081.000000 861.955811,1081.000000 856.466919,1081.000000 
z"/>
<path fill="#000099" opacity="1.000000" stroke="none" 
	d="
M209.087936,1055.470093 
	C214.873825,1055.006958 220.586578,1055.006958 227.000488,1055.006958 
	C227.000488,1063.014893 227.000488,1071.538818 227.000244,1080.531372 
	C221.311966,1081.000000 215.623917,1081.000000 209.467941,1081.000000 
	C209.004944,1072.644409 209.009872,1064.288818 209.087936,1055.470093 
z"/>
<path fill="#000080" opacity="1.000000" stroke="none" 
	d="
M871.913330,27.544348 
	C868.177551,28.011482 864.479492,27.695274 860.859680,28.092684 
	C855.866028,28.640923 854.626831,26.596205 854.899475,21.912640 
	C855.285950,15.274796 854.997559,8.597657 854.998779,1.468655 
	C860.354919,1.000000 865.709900,1.000000 871.532410,1.000000 
	C871.995300,9.693073 871.990662,18.386147 871.913330,27.544348 
z"/>
<path fill="#0006D5" opacity="1.000000" stroke="none" 
	d="
M234.333328,1081.000000 
	C234.000000,1075.203247 234.000000,1069.406616 234.000000,1063.609863 
	C234.658630,1063.609741 235.317276,1063.609497 235.975906,1063.609253 
	C235.975906,1069.094238 235.975906,1074.579224 235.987946,1080.532104 
	C235.555557,1081.000000 235.111099,1081.000000 234.333328,1081.000000 
z"/>
<path fill="#0008D4" opacity="1.000000" stroke="none" 
	d="
M238.666672,1.000000 
	C239.000000,5.785983 239.000000,10.571966 239.000000,15.357949 
	C238.339996,15.356021 237.679977,15.354093 237.019974,15.352163 
	C237.019974,10.879101 237.019974,6.406038 237.009979,1.466488 
	C237.444443,1.000000 237.888901,1.000000 238.666672,1.000000 
z"/>
<path fill="#000282" opacity="1.000000" stroke="none" 
	d="
M871.913025,43.573608 
	C871.672974,43.997047 871.506958,44.003361 871.341187,43.998878 
	C868.145996,43.912502 863.428467,44.968758 863.604126,40.337955 
	C863.766052,36.066914 868.435791,38.833630 871.400757,38.026222 
	C871.879517,39.738049 871.933350,41.444752 871.913025,43.573608 
z"/>
<path fill="#FCFCFE" opacity="1.000000" stroke="none" 
	d="
M229.835342,70.016731 
	C233.820053,46.250530 246.906815,30.336094 270.369385,23.775316 
	C275.106110,22.450794 280.245544,22.090616 285.199707,22.088209 
	C455.341156,22.005480 625.482605,21.992916 795.624084,22.042990 
	C827.925415,22.052496 850.937500,45.275520 850.939270,77.671577 
	C850.956116,386.292511 850.955017,694.913452 850.940125,1003.534424 
	C850.938721,1032.527954 833.482056,1053.329468 803.887207,1058.915771 
	C799.558105,1059.104858 796.063232,1059.262451 792.568298,1059.262573 
	C731.620178,1059.264893 670.671997,1059.252808 609.723877,1059.234131 
	C498.821228,1059.200073 387.918610,1059.159546 277.015961,1059.121826 
	C254.063156,1054.903931 238.464890,1042.226318 231.643692,1019.544739 
	C230.882690,1017.014282 230.578598,1014.346375 229.985504,1010.960632 
	C229.855942,1005.348511 229.757294,1000.518005 229.757614,995.687500 
	C229.778427,687.130554 229.807236,378.573669 229.835342,70.016731 
M282.343079,38.164967 
	C281.192230,38.329880 280.041351,38.494793 278.071625,38.628036 
	C258.929260,41.765881 246.037476,56.599689 245.970490,76.098015 
	C245.843399,113.094429 245.926620,150.091568 245.945724,187.088394 
	C245.946289,188.168808 246.207901,189.249084 246.331131,190.200653 
	C442.608337,190.200653 638.530396,190.200653 834.336914,190.200653 
	C834.588501,189.616180 834.827576,189.320129 834.827576,189.024063 
	C834.830872,150.861099 835.116821,112.694664 834.676208,74.536629 
	C834.457214,55.570839 820.270874,40.693752 801.495361,38.305168 
	C800.318665,38.320641 799.142029,38.336113 797.046936,38.181114 
	C643.521057,38.168343 489.995148,38.148663 336.469269,38.152145 
	C318.657532,38.152550 300.845795,38.281391 282.343079,38.164967 
M833.068420,890.888306 
	C638.710144,890.877563 444.351868,890.866577 249.993607,890.864746 
	C249.000473,890.864746 248.007324,890.994690 246.156921,891.294312 
	C246.081314,892.451721 245.940002,893.609070 245.939651,894.766479 
	C245.928421,931.085999 245.891541,967.405640 245.945374,1003.725098 
	C245.980453,1027.393188 261.759155,1043.064209 285.544891,1043.069092 
	C455.146942,1043.103638 624.749023,1043.121704 794.351074,1043.122437 
	C819.366150,1043.122559 834.837646,1027.598022 834.854187,1002.561707 
	C834.877808,966.908569 834.871094,931.255493 834.822937,895.602417 
	C834.820923,894.115295 834.267883,892.629028 833.068420,890.888306 
M245.928802,856.499084 
	C245.928802,862.428772 245.928802,868.358459 245.928802,874.195801 
	C442.556244,874.195801 638.483521,874.195801 834.567688,874.195801 
	C834.567688,651.659973 834.567688,429.428802 834.567688,207.189789 
	C638.231323,207.189789 442.191010,207.189789 245.928787,207.189789 
	C245.928787,423.543732 245.928787,639.521667 245.928802,856.499084 
z"/>
<path fill="#000096" opacity="1.000000" stroke="none" 
	d="
M229.452606,70.122131 
	C229.807236,378.573669 229.778427,687.130554 229.757614,995.687500 
	C229.757294,1000.518005 229.855942,1005.348511 229.855164,1010.638916 
	C229.209625,1010.216370 228.328583,1009.403137 228.096802,1008.434509 
	C227.794739,1007.172058 227.999908,1005.786316 227.999908,1004.453674 
	C227.998810,695.072388 227.996826,385.691101 228.043091,76.309807 
	C228.043396,74.282333 228.712845,72.254951 229.452606,70.122131 
z"/>
<path fill="#000094" opacity="1.000000" stroke="none" 
	d="
M277.116394,1059.508301 
	C387.918610,1059.159546 498.821228,1059.200073 609.723877,1059.234131 
	C670.671997,1059.252808 731.620178,1059.264893 792.568298,1059.262573 
	C796.063232,1059.262451 799.558105,1059.104858 803.518616,1059.064209 
	C803.332581,1059.724731 802.759033,1060.724243 802.012695,1060.876465 
	C800.570984,1061.170532 799.031738,1060.998291 797.532959,1060.998291 
	C626.114380,1061.000122 454.695801,1061.003784 283.277222,1060.954224 
	C281.257019,1060.953613 279.236969,1060.263184 277.116394,1059.508301 
z"/>
<path fill="#01119F" opacity="1.000000" stroke="none" 
	d="
M245.928802,855.999329 
	C245.928787,639.521667 245.928787,423.543732 245.928787,207.189789 
	C442.191010,207.189789 638.231323,207.189789 834.567688,207.189789 
	C834.567688,429.428802 834.567688,651.659973 834.567688,874.195801 
	C638.483521,874.195801 442.556244,874.195801 245.928802,874.195801 
	C245.928802,868.358459 245.928802,862.428772 245.928802,855.999329 
M448.389130,558.189453 
	C447.926117,559.640259 447.059448,561.090759 447.058075,562.541992 
	C446.991638,631.912720 446.991455,701.283569 447.059357,770.654297 
	C447.060760,772.097351 447.949188,773.539429 448.577972,775.743652 
	C448.341675,777.391846 448.176392,779.053955 447.857635,780.686035 
	C445.616608,792.160461 440.694397,801.982849 429.488495,806.962585 
	C425.128235,808.900269 423.622986,811.210815 425.026337,815.797852 
	C457.456726,815.797852 489.991699,815.797852 522.444580,815.797852 
	C523.571838,811.480713 522.832336,808.917175 518.313721,807.205017 
	C510.865784,804.382812 505.033173,798.901489 502.608673,791.367249 
	C500.303467,784.203491 498.603119,776.498779 498.539612,769.015747 
	C498.105743,717.897949 498.171539,666.775940 498.091797,615.655273 
	C498.089813,614.398560 498.268280,613.141602 498.422302,611.088379 
	C509.470032,611.088379 520.187439,611.088379 532.140503,611.088379 
	C528.881531,603.762756 526.009827,597.636597 523.437561,591.387207 
	C522.150208,588.259521 520.269714,587.396057 516.933289,587.585876 
	C510.722626,587.939331 504.477478,587.687256 497.833496,587.687256 
	C497.833496,574.921326 497.833496,562.536621 497.833496,550.607666 
	C481.392090,553.134155 465.303162,555.606506 448.389130,558.189453 
M335.147583,670.500000 
	C335.091187,682.164307 335.528870,693.857361 334.850769,705.485413 
	C334.039429,719.398682 329.514526,731.849426 315.841980,738.307068 
	C311.375031,740.416809 309.718079,742.646179 311.452026,747.308960 
	C343.848602,747.308960 376.274261,747.308960 408.621124,747.308960 
	C409.889160,742.764038 408.801361,740.201416 404.228882,738.425415 
	C397.692810,735.886841 392.951080,730.905823 389.622559,724.650452 
	C385.663971,717.210876 384.760590,709.190369 384.743927,700.934753 
	C384.641083,649.936584 384.493469,598.938416 384.361450,547.940247 
	C384.357361,546.356750 384.360931,544.773193 384.360931,543.110901 
	C386.096802,543.033081 387.087860,542.951355 388.079041,542.949524 
	C426.715881,542.878113 464.904388,539.006348 502.368439,529.240845 
	C505.440979,528.439941 506.864746,529.626587 508.553497,531.759766 
	C536.704163,567.318359 553.588684,608.062500 563.992065,651.809875 
	C569.026367,672.979980 571.073669,694.528320 571.673035,716.202759 
	C571.934937,725.672485 568.999451,734.321655 559.587036,738.526917 
	C555.049866,740.554016 554.098022,742.997864 555.536804,747.309204 
	C588.995789,747.309204 622.414551,747.309204 657.431335,747.309204 
	C656.012329,744.300537 655.520264,740.803772 653.843628,740.090149 
	C640.230774,734.295959 631.207031,724.105713 626.248535,710.676453 
	C622.346375,700.107971 619.696289,689.039001 617.017578,678.063599 
	C605.605469,631.305176 588.394775,586.958496 562.150513,546.436951 
	C555.392944,536.003174 547.498230,526.305847 539.998779,516.097168 
	C541.557312,515.330627 543.319275,514.412781 545.122559,513.585083 
	C561.605286,506.019623 576.615784,496.205750 589.799866,483.751129 
	C618.743103,456.409149 633.687439,422.795044 630.116943,383.017426 
	C626.005798,337.216125 601.027649,304.608734 560.509521,283.790039 
	C535.189514,270.780396 507.698425,266.640289 479.643036,266.454956 
	C424.147522,266.088348 368.648376,266.270782 313.150726,266.247803 
	C312.206940,266.247437 311.263031,266.518890 310.228668,266.677399 
	C310.228668,268.880310 310.228668,270.852264 310.228668,273.195557 
	C326.030670,277.832123 332.903015,289.554077 334.658386,305.030609 
	C335.107574,308.990692 335.101929,313.015930 335.102966,317.011261 
	C335.133514,434.507507 335.138489,552.003784 335.147583,670.500000 
M655.959412,543.475159 
	C639.423462,557.842529 620.020081,567.078186 599.635803,574.289368 
	C603.512939,582.812927 607.148071,590.804626 610.860657,598.966675 
	C612.054932,598.749512 613.245667,598.722351 614.283936,598.310791 
	C618.329834,596.707153 620.975098,597.967712 623.302002,601.619812 
	C626.246399,606.241089 629.980957,610.354004 633.002991,614.931519 
	C661.902283,658.705017 678.624634,706.822571 683.738403,758.952271 
	C684.743469,769.198486 685.079163,779.564636 684.869568,789.858093 
	C684.710022,797.692444 680.611938,804.080383 673.262939,807.163513 
	C668.551208,809.140381 668.180176,811.846130 669.154114,815.803955 
	C702.900024,815.803955 736.314514,815.803955 769.621765,815.803955 
	C770.928345,811.312195 769.355713,809.447693 765.352112,807.291077 
	C759.472961,804.124146 753.885010,799.831970 749.314087,794.950684 
	C741.398376,786.497375 738.004639,775.593506 734.987061,764.566467 
	C728.842773,742.113586 723.378296,719.399658 715.769836,697.439087 
	C702.297546,658.554016 684.208740,621.913940 657.414124,590.145630 
	C656.074890,588.557861 654.795471,586.919617 653.217896,584.970947 
	C655.619324,583.807861 657.531067,582.855835 659.464355,581.949768 
	C677.731384,573.388672 694.414429,562.424683 708.237183,547.691956 
	C740.864136,512.917114 752.942200,472.273682 738.745361,426.170410 
	C727.124451,388.432159 700.739136,363.127533 664.722778,347.802979 
	C656.571350,344.334625 647.921448,342.038086 639.614990,339.240570 
	C642.613770,351.279968 645.566956,362.317474 648.006958,373.467224 
	C648.676392,376.526337 649.782776,378.375397 652.432190,380.009155 
	C667.781799,389.474640 678.923401,402.663818 685.946960,419.240265 
	C701.482544,455.906067 696.388306,508.522919 655.959412,543.475159 
z"/>
<path fill="#00109F" opacity="1.000000" stroke="none" 
	d="
M833.971619,891.142334 
	C834.267883,892.629028 834.820923,894.115295 834.822937,895.602417 
	C834.871094,931.255493 834.877808,966.908569 834.854187,1002.561707 
	C834.837646,1027.598022 819.366150,1043.122559 794.351074,1043.122437 
	C624.749023,1043.121704 455.146942,1043.103638 285.544891,1043.069092 
	C261.759155,1043.064209 245.980453,1027.393188 245.945374,1003.725098 
	C245.891541,967.405640 245.928421,931.085999 245.939651,894.766479 
	C245.940002,893.609070 246.081314,892.451721 246.887329,891.464600 
	C249.264725,891.756653 250.911713,891.984741 252.558716,891.984863 
	C444.611633,892.000854 636.664551,892.002197 828.717468,891.964478 
	C830.468933,891.964172 832.220215,891.428284 833.971619,891.142334 
M342.949280,992.726440 
	C344.188019,997.568176 345.296631,1002.449951 346.762146,1007.221985 
	C347.104065,1008.335327 348.614258,1009.800659 349.662079,1009.864197 
	C354.373718,1010.149719 359.112396,1009.988647 363.719269,1009.988647 
	C361.709534,1002.081726 360.043335,994.701050 357.933594,987.449402 
	C355.657257,979.625183 354.055542,971.232178 345.213043,967.474731 
	C346.165344,966.949097 347.013611,966.483582 347.859283,966.013550 
	C357.609558,960.593872 361.916473,952.019043 360.873352,941.228943 
	C359.877625,930.929016 353.919434,924.100281 343.761230,921.341187 
	C329.546509,917.480225 315.355072,919.049500 301.344513,921.177063 
	C301.344513,951.077454 301.344513,980.466064 301.344513,1009.637817 
	C306.764862,1009.637817 311.835876,1009.637817 317.313751,1009.637817 
	C317.313751,997.209229 317.313751,985.140137 317.313751,972.999695 
	C319.742310,972.999695 321.740112,972.999634 323.737915,972.999695 
	C333.422577,972.999817 337.270752,975.446472 340.490875,984.036255 
	C341.446747,986.585938 341.849792,989.342957 342.949280,992.726440 
M662.503601,992.002747 
	C665.607544,997.106384 668.628296,1002.263977 671.877319,1007.273499 
	C672.634033,1008.440186 674.132507,1009.818115 675.348389,1009.876465 
	C681.055664,1010.150635 686.783508,1009.998413 692.824036,1009.998413 
	C682.135681,993.296631 671.747559,977.146057 661.514709,960.897644 
	C660.798950,959.761108 660.539001,957.348694 661.242432,956.461426 
	C667.639221,948.393555 674.332275,940.561462 680.864441,932.599548 
	C684.174866,928.564636 687.332825,924.404541 690.796082,920.000488 
	C684.564026,920.000488 678.895935,919.877991 673.240662,920.093140 
	C671.949097,920.142212 670.315674,921.050598 669.497375,922.084290 
	C664.556519,928.325684 659.772095,934.692505 655.002686,941.067749 
	C650.134216,947.575500 645.343201,954.141174 639.760071,961.709351 
	C639.760071,946.998108 639.760071,933.596069 639.760071,920.334229 
	C634.295349,920.334229 629.227417,920.334229 624.339233,920.334229 
	C624.339233,950.394043 624.339233,980.118958 624.339233,1009.642578 
	C629.754150,1009.642578 634.824890,1009.642578 639.999695,1009.642578 
	C639.999695,1002.129150 640.608887,994.906128 639.840942,987.832703 
	C638.940186,979.535706 642.238892,973.802490 648.396973,969.126526 
	C652.945251,976.548584 657.497131,983.976501 662.503601,992.002747 
M475.433105,1005.945312 
	C475.156128,1004.677246 474.985748,1003.374512 474.586456,1002.146179 
	C466.075653,975.963562 457.502899,949.800903 449.065460,923.594727 
	C448.253723,921.073547 447.307800,919.788269 444.423767,919.936279 
	C439.772125,920.175110 435.095825,920.106995 430.436615,919.959351 
	C427.748291,919.874146 426.563751,920.642700 425.677460,923.499756 
	C418.952332,945.178650 411.937134,966.767639 405.006012,988.382568 
	C402.727203,995.489075 400.429291,1002.589355 398.041107,1009.999634 
	C402.904724,1009.999634 407.074371,1009.837280 411.223785,1010.057068 
	C413.966858,1010.202332 415.307739,1009.352783 416.060059,1006.600403 
	C417.842346,1000.080078 419.824036,993.602539 422.077667,987.232361 
	C422.555450,985.881836 424.502991,984.196289 425.832184,984.143494 
	C433.315918,983.846008 440.822174,983.868958 448.308838,984.127563 
	C449.575653,984.171326 451.482666,985.651733 451.903717,986.877319 
	C454.151489,993.419617 456.067688,1000.078369 457.996307,1006.726440 
	C458.669708,1009.047791 459.731354,1010.211365 462.421356,1010.068115 
	C467.068481,1009.820740 471.738312,1009.999512 476.431946,1009.999512 
	C476.254974,1008.773315 476.098206,1007.687256 475.433105,1005.945312 
M732.966980,928.552673 
	C732.463013,929.375671 732.003540,930.230164 731.448120,931.016907 
	C725.294128,939.735168 725.497681,951.602661 732.585327,959.234741 
	C738.038391,965.106750 745.013489,968.056519 752.135254,971.040283 
	C756.548828,972.889343 761.194763,974.737854 764.843994,977.689758 
	C768.027771,980.265137 769.279907,984.748779 767.494690,988.891602 
	C765.232971,994.140198 760.690918,996.639526 755.103455,996.969055 
	C746.201355,997.493958 737.510681,996.654175 729.258179,991.519104 
	C728.315369,995.238159 727.875610,998.655273 726.562744,1001.695374 
	C725.150757,1004.964722 726.534119,1005.996338 729.195679,1007.057190 
	C740.134338,1011.417297 751.454712,1012.643616 762.742310,1009.555481 
	C776.840454,1005.698425 783.900024,996.985840 783.922729,983.041443 
	C783.938477,973.409912 778.878174,966.481384 770.456238,962.191956 
	C763.151611,958.471741 755.611389,955.216309 748.206604,951.689758 
	C743.937805,949.656616 741.970581,945.572510 743.304199,941.647949 
	C744.330139,938.628845 747.595825,935.247681 750.606750,934.238281 
	C759.415344,931.285034 768.239197,932.845947 776.706543,936.705383 
	C778.005798,932.306702 779.315491,927.872620 780.740845,923.046753 
	C764.232605,917.402161 748.205261,915.959961 732.966980,928.552673 
M539.053162,1007.559021 
	C552.265076,1012.309753 565.543945,1012.122314 578.843384,1008.001282 
	C579.960632,1007.655029 581.855408,1006.588135 581.778198,1006.123596 
	C581.104248,1002.065857 580.063232,998.068970 579.120178,994.006897 
	C562.754456,999.899292 543.199951,997.851929 534.950623,984.401611 
	C528.643066,974.117432 527.161743,957.528259 535.705444,945.147095 
	C538.636963,940.898987 543.561829,937.238586 548.377258,935.243164 
	C558.301025,931.130676 568.690369,932.450562 579.256653,935.794495 
	C580.400818,931.248718 581.517761,926.811401 582.649658,922.314392 
	C571.859070,918.918213 560.897095,917.723022 549.781616,920.042786 
	C534.930603,923.142273 523.657227,931.028198 517.334778,945.227234 
	C510.998291,959.457703 511.490295,973.890442 517.551636,987.797913 
	C521.517395,996.897278 528.482727,1003.871094 539.053162,1007.559021 
z"/>
<path fill="#01119F" opacity="1.000000" stroke="none" 
	d="
M802.092102,38.689438 
	C820.270874,40.693752 834.457214,55.570839 834.676208,74.536629 
	C835.116821,112.694664 834.830872,150.861099 834.827576,189.024063 
	C834.827576,189.320129 834.588501,189.616180 834.336914,190.200653 
	C638.530396,190.200653 442.608337,190.200653 246.331131,190.200653 
	C246.207901,189.249084 245.946289,188.168808 245.945724,187.088394 
	C245.926620,150.091568 245.843399,113.094429 245.970490,76.098015 
	C246.037476,56.599689 258.929260,41.765881 278.660095,38.941532 
	C280.510406,38.953583 281.772217,38.652134 283.034058,38.350685 
	C300.845795,38.281391 318.657532,38.152550 336.469269,38.152145 
	C489.995148,38.148663 643.521057,38.168343 797.602356,38.588646 
	C799.469238,38.893929 800.780640,38.791683 802.092102,38.689438 
M500.002594,146.194611 
	C499.807953,150.322098 503.269836,149.743729 505.436829,149.884018 
	C510.744537,150.227631 516.154724,150.521957 521.403687,149.869888 
	C528.715088,148.961563 536.174622,148.044724 542.336487,143.194870 
	C549.402344,137.633560 552.021729,130.122940 553.349792,121.471115 
	C555.552429,107.121513 550.110657,91.352448 533.977112,86.931091 
	C522.795410,83.866798 511.624420,84.827057 500.002136,86.352180 
	C500.002136,106.015823 500.002136,125.631065 500.002594,146.194611 
M736.504578,88.937378 
	C724.068909,82.762108 711.124573,85.052322 698.115540,86.252113 
	C698.115540,107.225113 698.115540,127.813286 698.115540,149.732895 
	C706.001526,149.732895 713.894653,150.496231 721.556458,149.493057 
	C727.763489,148.680359 734.295959,146.736511 739.601379,143.512619 
	C747.299438,138.834808 749.739563,130.687973 751.306274,121.800446 
	C753.350281,110.205559 748.976013,93.924461 736.504578,88.937378 
M271.997894,129.579956 
	C271.997894,127.471260 271.997894,125.362572 271.997894,123.304832 
	C284.064819,122.371826 286.745087,123.905243 289.575226,133.069305 
	C290.099091,134.765533 290.493439,136.501297 290.981659,138.209045 
	C294.883301,151.856903 291.950867,148.739075 305.334290,148.824585 
	C305.474060,148.825485 305.614685,148.696274 305.754913,148.627808 
	C298.757507,124.313087 300.599518,124.886581 292.344299,118.590881 
	C299.478668,115.836891 304.496460,109.117477 303.907471,102.054039 
	C303.381500,95.746239 301.021301,89.567505 291.416351,86.769402 
	C281.003784,83.736023 270.715820,85.151093 260.251892,86.268051 
	C260.251892,107.205994 260.251892,127.935875 260.251892,148.729568 
	C264.239075,148.729568 267.971313,148.729568 271.997894,148.729568 
	C271.997894,142.498764 271.997894,136.531570 271.997894,129.579956 
M388.965790,130.084869 
	C389.326843,127.346397 389.646942,124.601799 390.055939,121.870514 
	C391.971802,109.075569 389.622162,97.712044 378.832916,89.363937 
	C366.940033,80.161858 346.770203,83.164246 338.689880,95.562042 
	C332.416840,105.186913 331.188904,115.335373 333.005737,126.251869 
	C335.924408,143.788818 352.042328,152.525742 367.384888,149.336533 
	C378.234253,147.081284 384.632965,140.537933 388.965790,130.084869 
M459.055725,109.370560 
	C457.838898,105.533638 456.674133,101.679207 455.391083,97.864555 
	C454.011475,93.762688 453.658997,87.960182 450.779358,86.074471 
	C447.471313,83.908234 441.882721,85.218719 437.283844,85.042381 
	C436.972473,85.030441 436.653564,85.214600 436.348175,85.316193 
	C429.621063,106.448853 422.893921,127.581512 416.076508,148.997849 
	C418.655853,148.997849 420.832306,148.820526 422.968750,149.037567 
	C426.569611,149.403381 428.595825,148.476700 429.371918,144.428757 
	C430.237061,139.916519 432.106354,135.596817 433.563141,131.117676 
	C440.223236,131.117676 446.856262,131.117676 453.540100,131.117676 
	C455.537445,137.097305 457.504608,142.986633 459.480011,148.900497 
	C463.627319,148.900497 467.606171,148.900497 471.744354,148.900497 
	C470.937897,146.128922 470.224030,143.473099 469.392822,140.854538 
	C466.130249,130.576447 462.830688,120.310104 459.055725,109.370560 
M782.002014,135.491821 
	C782.002014,139.922150 782.002014,144.352478 782.002014,148.685303 
	C795.345276,148.685303 808.079163,148.685303 820.662292,148.685303 
	C820.662292,145.297272 820.662292,142.229080 820.662292,138.741394 
	C811.593567,138.741394 802.855408,138.741394 794.362671,138.741394 
	C794.362671,132.561050 794.362671,126.822945 794.362671,120.851219 
	C802.343506,120.851219 809.961670,120.851219 817.783081,120.851219 
	C817.783081,117.863327 817.783081,115.133301 817.783081,111.969147 
	C809.839539,111.969147 802.096558,111.969147 794.246826,111.969147 
	C794.246826,106.133743 794.246826,100.735146 794.246826,94.907913 
	C802.560974,94.907913 810.634644,94.907913 818.717407,94.907913 
	C818.717407,91.401909 818.717407,88.335571 818.717407,85.297653 
	C806.371643,85.297653 794.308716,85.297653 782.002014,85.297653 
	C782.002014,101.892990 782.002014,118.194054 782.002014,135.491821 
M617.553101,96.790550 
	C618.137573,94.953392 618.464478,92.977608 619.362366,91.309097 
	C621.028809,88.212509 618.978333,86.887009 616.845947,86.085472 
	C607.866150,82.710052 598.947876,82.986511 590.729736,88.142059 
	C583.876099,92.441612 578.673889,105.243584 587.676941,112.930023 
	C592.101257,116.707359 597.670654,119.210907 602.892883,121.966805 
	C607.887024,124.602310 611.849915,127.989891 611.092896,133.386459 
	C610.590698,136.966675 605.191467,140.870636 600.028748,139.995621 
	C594.714417,139.094925 589.408936,138.142151 584.303955,137.247955 
	C583.697021,139.660202 582.927673,142.718018 582.107422,145.978134 
	C591.086853,150.739075 600.487488,151.338852 609.692200,148.546097 
	C617.008240,146.326370 622.285034,140.917145 622.899414,132.767929 
	C623.483093,125.027740 620.441650,118.738037 613.236938,115.050514 
	C608.400452,112.575119 603.077148,110.825676 598.745605,107.684250 
	C596.601135,106.129021 594.909668,101.906967 595.414062,99.368500 
	C595.840576,97.221970 599.673889,94.381470 602.092224,94.289528 
	C606.993103,94.103210 611.956909,95.570221 617.553101,96.790550 
M653.002136,88.667053 
	C653.002136,108.728401 653.002136,128.789749 653.002136,148.643036 
	C657.412476,148.643036 661.144226,148.643036 664.655518,148.643036 
	C664.655518,127.237549 664.655518,106.188080 664.655518,85.002853 
	C661.492615,85.002853 658.639832,84.761559 655.866699,85.126427 
	C654.817322,85.264503 653.952026,86.801468 653.002136,88.667053 
z"/>
<path fill="#000096" opacity="1.000000" stroke="none" 
	d="
M833.520020,891.015381 
	C832.220215,891.428284 830.468933,891.964172 828.717468,891.964478 
	C636.664551,892.002197 444.611633,892.000854 252.558716,891.984863 
	C250.911713,891.984741 249.264725,891.756653 247.315964,891.349487 
	C248.007324,890.994690 249.000473,890.864746 249.993607,890.864746 
	C444.351868,890.866577 638.710144,890.877563 833.520020,891.015381 
z"/>
<path fill="#1E24A6" opacity="1.000000" stroke="none" 
	d="
M282.688568,38.257828 
	C281.772217,38.652134 280.510406,38.953583 279.069519,38.957367 
	C280.041351,38.494793 281.192230,38.329880 282.688568,38.257828 
z"/>
<path fill="#1E24A6" opacity="1.000000" stroke="none" 
	d="
M801.793701,38.497303 
	C800.780640,38.791683 799.469238,38.893929 798.061523,38.673882 
	C799.142029,38.336113 800.318665,38.320641 801.793701,38.497303 
z"/>
<path fill="#FDFDFE" opacity="1.000000" stroke="none" 
	d="
M335.147552,670.000000 
	C335.138489,552.003784 335.133514,434.507507 335.102966,317.011261 
	C335.101929,313.015930 335.107574,308.990692 334.658386,305.030609 
	C332.903015,289.554077 326.030670,277.832123 310.228668,273.195557 
	C310.228668,270.852264 310.228668,268.880310 310.228668,266.677399 
	C311.263031,266.518890 312.206940,266.247437 313.150726,266.247803 
	C368.648376,266.270782 424.147522,266.088348 479.643036,266.454956 
	C507.698425,266.640289 535.189514,270.780396 560.509521,283.790039 
	C601.027649,304.608734 626.005798,337.216125 630.116943,383.017426 
	C633.687439,422.795044 618.743103,456.409149 589.799866,483.751129 
	C576.615784,496.205750 561.605286,506.019623 545.122559,513.585083 
	C543.319275,514.412781 541.557312,515.330627 539.998779,516.097168 
	C547.498230,526.305847 555.392944,536.003174 562.150513,546.436951 
	C588.394775,586.958496 605.605469,631.305176 617.017578,678.063599 
	C619.696289,689.039001 622.346375,700.107971 626.248535,710.676453 
	C631.207031,724.105713 640.230774,734.295959 653.843628,740.090149 
	C655.520264,740.803772 656.012329,744.300537 657.431335,747.309204 
	C622.414551,747.309204 588.995789,747.309204 555.536804,747.309204 
	C554.098022,742.997864 555.049866,740.554016 559.587036,738.526917 
	C568.999451,734.321655 571.934937,725.672485 571.673035,716.202759 
	C571.073669,694.528320 569.026367,672.979980 563.992065,651.809875 
	C553.588684,608.062500 536.704163,567.318359 508.553497,531.759766 
	C506.864746,529.626587 505.440979,528.439941 502.368439,529.240845 
	C464.904388,539.006348 426.715881,542.878113 388.079041,542.949524 
	C387.087860,542.951355 386.096802,543.033081 384.360931,543.110901 
	C384.360931,544.773193 384.357361,546.356750 384.361450,547.940247 
	C384.493469,598.938416 384.641083,649.936584 384.743927,700.934753 
	C384.760590,709.190369 385.663971,717.210876 389.622559,724.650452 
	C392.951080,730.905823 397.692810,735.886841 404.228882,738.425415 
	C408.801361,740.201416 409.889160,742.764038 408.621124,747.308960 
	C376.274261,747.308960 343.848602,747.308960 311.452026,747.308960 
	C309.718079,742.646179 311.375031,740.416809 315.841980,738.307068 
	C329.514526,731.849426 334.039429,719.398682 334.850769,705.485413 
	C335.528870,693.857361 335.091187,682.164307 335.147552,670.000000 
M577.811096,367.879181 
	C569.337769,332.188324 547.087830,309.393158 512.046387,299.754791 
	C499.811951,296.389648 486.811218,294.732605 474.103333,294.385223 
	C445.294617,293.597717 416.450409,294.106445 387.620636,294.102234 
	C386.674347,294.102112 385.728058,294.255798 384.591156,294.354279 
	C384.591156,369.418823 384.591156,444.166107 384.591156,519.329590 
	C386.442047,519.329590 388.072601,519.411621 389.692841,519.316711 
	C402.993927,518.537720 416.343628,518.209045 429.582458,516.824768 
	C458.388214,513.812927 486.381470,507.494812 512.623108,494.664307 
	C563.483398,469.796906 587.602112,423.378693 577.811096,367.879181 
z"/>
<path fill="#FDFDFE" opacity="1.000000" stroke="none" 
	d="
M656.225952,543.239319 
	C696.388306,508.522919 701.482544,455.906067 685.946960,419.240265 
	C678.923401,402.663818 667.781799,389.474640 652.432190,380.009155 
	C649.782776,378.375397 648.676392,376.526337 648.006958,373.467224 
	C645.566956,362.317474 642.613770,351.279968 639.614990,339.240570 
	C647.921448,342.038086 656.571350,344.334625 664.722778,347.802979 
	C700.739136,363.127533 727.124451,388.432159 738.745361,426.170410 
	C752.942200,472.273682 740.864136,512.917114 708.237183,547.691956 
	C694.414429,562.424683 677.731384,573.388672 659.464355,581.949768 
	C657.531067,582.855835 655.619324,583.807861 653.217896,584.970947 
	C654.795471,586.919617 656.074890,588.557861 657.414124,590.145630 
	C684.208740,621.913940 702.297546,658.554016 715.769836,697.439087 
	C723.378296,719.399658 728.842773,742.113586 734.987061,764.566467 
	C738.004639,775.593506 741.398376,786.497375 749.314087,794.950684 
	C753.885010,799.831970 759.472961,804.124146 765.352112,807.291077 
	C769.355713,809.447693 770.928345,811.312195 769.621765,815.803955 
	C736.314514,815.803955 702.900024,815.803955 669.154114,815.803955 
	C668.180176,811.846130 668.551208,809.140381 673.262939,807.163513 
	C680.611938,804.080383 684.710022,797.692444 684.869568,789.858093 
	C685.079163,779.564636 684.743469,769.198486 683.738403,758.952271 
	C678.624634,706.822571 661.902283,658.705017 633.002991,614.931519 
	C629.980957,610.354004 626.246399,606.241089 623.302002,601.619812 
	C620.975098,597.967712 618.329834,596.707153 614.283936,598.310791 
	C613.245667,598.722351 612.054932,598.749512 610.860657,598.966675 
	C607.148071,590.804626 603.512939,582.812927 599.635803,574.289368 
	C620.020081,567.078186 639.423462,557.842529 656.225952,543.239319 
z"/>
<path fill="#FEFEFF" opacity="1.000000" stroke="none" 
	d="
M449.214233,558.078857 
	C465.303162,555.606506 481.392090,553.134155 497.833496,550.607666 
	C497.833496,562.536621 497.833496,574.921326 497.833496,587.687256 
	C504.477478,587.687256 510.722626,587.939331 516.933289,587.585876 
	C520.269714,587.396057 522.150208,588.259521 523.437561,591.387207 
	C526.009827,597.636597 528.881531,603.762756 532.140503,611.088379 
	C520.187439,611.088379 509.470032,611.088379 498.422302,611.088379 
	C498.268280,613.141602 498.089813,614.398560 498.091797,615.655273 
	C498.171539,666.775940 498.105743,717.897949 498.539612,769.015747 
	C498.603119,776.498779 500.303467,784.203491 502.608673,791.367249 
	C505.033173,798.901489 510.865784,804.382812 518.313721,807.205017 
	C522.832336,808.917175 523.571838,811.480713 522.444580,815.797852 
	C489.991699,815.797852 457.456726,815.797852 425.026337,815.797852 
	C423.622986,811.210815 425.128235,808.900269 429.488495,806.962585 
	C440.694397,801.982849 445.616608,792.160461 447.857635,780.686035 
	C448.176392,779.053955 448.341675,777.391846 448.661804,774.920105 
	C448.800629,771.270630 448.903687,768.444641 448.903534,765.618713 
	C448.900360,698.423340 448.883240,631.227905 448.888275,564.032532 
	C448.888397,562.047974 449.100800,560.063416 449.214233,558.078857 
z"/>
<path fill="#000098" opacity="1.000000" stroke="none" 
	d="
M448.801697,558.134155 
	C449.100800,560.063416 448.888397,562.047974 448.888275,564.032532 
	C448.883240,631.227905 448.900360,698.423340 448.903534,765.618713 
	C448.903687,768.444641 448.800629,771.270630 448.584717,774.539307 
	C447.949188,773.539429 447.060760,772.097351 447.059357,770.654297 
	C446.991455,701.283569 446.991638,631.912720 447.058075,562.541992 
	C447.059448,561.090759 447.926117,559.640259 448.801697,558.134155 
z"/>
<path fill="#FFFFFF" opacity="1.000000" stroke="none" 
	d="
M342.727722,992.365723 
	C341.849792,989.342957 341.446747,986.585938 340.490875,984.036255 
	C337.270752,975.446472 333.422577,972.999817 323.737915,972.999695 
	C321.740112,972.999634 319.742310,972.999695 317.313751,972.999695 
	C317.313751,985.140137 317.313751,997.209229 317.313751,1009.637817 
	C311.835876,1009.637817 306.764862,1009.637817 301.344513,1009.637817 
	C301.344513,980.466064 301.344513,951.077454 301.344513,921.177063 
	C315.355072,919.049500 329.546509,917.480225 343.761230,921.341187 
	C353.919434,924.100281 359.877625,930.929016 360.873352,941.228943 
	C361.916473,952.019043 357.609558,960.593872 347.859283,966.013550 
	C347.013611,966.483582 346.165344,966.949097 345.213043,967.474731 
	C354.055542,971.232178 355.657257,979.625183 357.933594,987.449402 
	C360.043335,994.701050 361.709534,1002.081726 363.719269,1009.988647 
	C359.112396,1009.988647 354.373718,1010.149719 349.662079,1009.864197 
	C348.614258,1009.800659 347.104065,1008.335327 346.762146,1007.221985 
	C345.296631,1002.449951 344.188019,997.568176 342.727722,992.365723 
M344.011169,951.206299 
	C346.600800,945.036499 344.803375,935.087585 335.866211,932.571838 
	C330.920898,931.179749 325.502625,931.310669 320.286285,931.169067 
	C319.217865,931.140015 317.175812,932.930359 317.148254,933.925415 
	C316.901001,942.855347 317.003906,951.795044 317.003906,960.952148 
	C327.342682,960.794861 337.841400,963.034790 344.011169,951.206299 
z"/>
<path fill="#FFFFFF" opacity="1.000000" stroke="none" 
	d="
M662.276367,991.703613 
	C657.497131,983.976501 652.945251,976.548584 648.396973,969.126526 
	C642.238892,973.802490 638.940186,979.535706 639.840942,987.832703 
	C640.608887,994.906128 639.999695,1002.129150 639.999695,1009.642578 
	C634.824890,1009.642578 629.754150,1009.642578 624.339233,1009.642578 
	C624.339233,980.118958 624.339233,950.394043 624.339233,920.334229 
	C629.227417,920.334229 634.295349,920.334229 639.760071,920.334229 
	C639.760071,933.596069 639.760071,946.998108 639.760071,961.709351 
	C645.343201,954.141174 650.134216,947.575500 655.002686,941.067749 
	C659.772095,934.692505 664.556519,928.325684 669.497375,922.084290 
	C670.315674,921.050598 671.949097,920.142212 673.240662,920.093140 
	C678.895935,919.877991 684.564026,920.000488 690.796082,920.000488 
	C687.332825,924.404541 684.174866,928.564636 680.864441,932.599548 
	C674.332275,940.561462 667.639221,948.393555 661.242432,956.461426 
	C660.539001,957.348694 660.798950,959.761108 661.514709,960.897644 
	C671.747559,977.146057 682.135681,993.296631 692.824036,1009.998413 
	C686.783508,1009.998413 681.055664,1010.150635 675.348389,1009.876465 
	C674.132507,1009.818115 672.634033,1008.440186 671.877319,1007.273499 
	C668.628296,1002.263977 665.607544,997.106384 662.276367,991.703613 
z"/>
<path fill="#FFFFFF" opacity="1.000000" stroke="none" 
	d="
M475.687256,1006.273254 
	C476.098206,1007.687256 476.254974,1008.773315 476.431946,1009.999512 
	C471.738312,1009.999512 467.068481,1009.820740 462.421356,1010.068115 
	C459.731354,1010.211365 458.669708,1009.047791 457.996307,1006.726440 
	C456.067688,1000.078369 454.151489,993.419617 451.903717,986.877319 
	C451.482666,985.651733 449.575653,984.171326 448.308838,984.127563 
	C440.822174,983.868958 433.315918,983.846008 425.832184,984.143494 
	C424.502991,984.196289 422.555450,985.881836 422.077667,987.232361 
	C419.824036,993.602539 417.842346,1000.080078 416.060059,1006.600403 
	C415.307739,1009.352783 413.966858,1010.202332 411.223785,1010.057068 
	C407.074371,1009.837280 402.904724,1009.999634 398.041107,1009.999634 
	C400.429291,1002.589355 402.727203,995.489075 405.006012,988.382568 
	C411.937134,966.767639 418.952332,945.178650 425.677460,923.499756 
	C426.563751,920.642700 427.748291,919.874146 430.436615,919.959351 
	C435.095825,920.106995 439.772125,920.175110 444.423767,919.936279 
	C447.307800,919.788269 448.253723,921.073547 449.065460,923.594727 
	C457.502899,949.800903 466.075653,975.963562 474.586456,1002.146179 
	C474.985748,1003.374512 475.156128,1004.677246 475.687256,1006.273254 
M431.653687,972.000000 
	C437.056976,972.000000 442.460266,972.000000 448.245728,972.000000 
	C444.205231,958.711182 440.369873,946.097046 436.625031,933.780518 
	C433.054718,946.274475 429.447327,958.898193 425.703308,972.000000 
	C427.752106,972.000000 429.225128,972.000000 431.653687,972.000000 
z"/>
<path fill="#FFFFFF" opacity="1.000000" stroke="none" 
	d="
M733.222900,928.283752 
	C748.205261,915.959961 764.232605,917.402161 780.740845,923.046753 
	C779.315491,927.872620 778.005798,932.306702 776.706543,936.705383 
	C768.239197,932.845947 759.415344,931.285034 750.606750,934.238281 
	C747.595825,935.247681 744.330139,938.628845 743.304199,941.647949 
	C741.970581,945.572510 743.937805,949.656616 748.206604,951.689758 
	C755.611389,955.216309 763.151611,958.471741 770.456238,962.191956 
	C778.878174,966.481384 783.938477,973.409912 783.922729,983.041443 
	C783.900024,996.985840 776.840454,1005.698425 762.742310,1009.555481 
	C751.454712,1012.643616 740.134338,1011.417297 729.195679,1007.057190 
	C726.534119,1005.996338 725.150757,1004.964722 726.562744,1001.695374 
	C727.875610,998.655273 728.315369,995.238159 729.258179,991.519104 
	C737.510681,996.654175 746.201355,997.493958 755.103455,996.969055 
	C760.690918,996.639526 765.232971,994.140198 767.494690,988.891602 
	C769.279907,984.748779 768.027771,980.265137 764.843994,977.689758 
	C761.194763,974.737854 756.548828,972.889343 752.135254,971.040283 
	C745.013489,968.056519 738.038391,965.106750 732.585327,959.234741 
	C725.497681,951.602661 725.294128,939.735168 731.448120,931.016907 
	C732.003540,930.230164 732.463013,929.375671 733.222900,928.283752 
z"/>
<path fill="#FFFFFF" opacity="1.000000" stroke="none" 
	d="
M538.736145,1007.310791 
	C528.482727,1003.871094 521.517395,996.897278 517.551636,987.797913 
	C511.490295,973.890442 510.998291,959.457703 517.334778,945.227234 
	C523.657227,931.028198 534.930603,923.142273 549.781616,920.042786 
	C560.897095,917.723022 571.859070,918.918213 582.649658,922.314392 
	C581.517761,926.811401 580.400818,931.248718 579.256653,935.794495 
	C568.690369,932.450562 558.301025,931.130676 548.377258,935.243164 
	C543.561829,937.238586 538.636963,940.898987 535.705444,945.147095 
	C527.161743,957.528259 528.643066,974.117432 534.950623,984.401611 
	C543.199951,997.851929 562.754456,999.899292 579.120178,994.006897 
	C580.063232,998.068970 581.104248,1002.065857 581.778198,1006.123596 
	C581.855408,1006.588135 579.960632,1007.655029 578.843384,1008.001282 
	C565.543945,1012.122314 552.265076,1012.309753 538.736145,1007.310791 
z"/>
<path fill="#FFFFFF" opacity="1.000000" stroke="none" 
	d="
M500.002380,145.720459 
	C500.002136,125.631065 500.002136,106.015823 500.002136,86.352180 
	C511.624420,84.827057 522.795410,83.866798 533.977112,86.931091 
	C550.110657,91.352448 555.552429,107.121513 553.349792,121.471115 
	C552.021729,130.122940 549.402344,137.633560 542.336487,143.194870 
	C536.174622,148.044724 528.715088,148.961563 521.403687,149.869888 
	C516.154724,150.521957 510.744537,150.227631 505.436829,149.884018 
	C503.269836,149.743729 499.807953,150.322098 500.002380,145.720459 
M512.000000,124.498344 
	C512.000000,129.919296 512.000000,135.340240 512.000000,140.681732 
	C522.838745,141.949570 533.123169,141.173584 538.559326,131.349915 
	C543.648926,122.152489 544.530518,111.381058 538.336975,102.114243 
	C532.109497,92.796745 521.986816,93.479874 512.000000,94.302010 
	C512.000000,104.252182 512.000000,113.875465 512.000000,124.498344 
z"/>
<path fill="#FFFFFF" opacity="1.000000" stroke="none" 
	d="
M736.890015,88.986893 
	C748.976013,93.924461 753.350281,110.205559 751.306274,121.800446 
	C749.739563,130.687973 747.299438,138.834808 739.601379,143.512619 
	C734.295959,146.736511 727.763489,148.680359 721.556458,149.493057 
	C713.894653,150.496231 706.001526,149.732895 698.115540,149.732895 
	C698.115540,127.813286 698.115540,107.225113 698.115540,86.252113 
	C711.124573,85.052322 724.068909,82.762108 736.890015,88.986893 
M739.999878,120.172394 
	C740.086731,113.124237 740.214783,106.147888 734.931335,100.382751 
	C728.002625,92.822411 719.139893,93.975586 710.226807,94.125191 
	C710.226807,109.859024 710.226807,125.239456 710.226807,141.747330 
	C716.149292,140.875580 721.916565,140.726898 727.222229,139.085709 
	C735.715088,136.458618 738.354248,128.953705 739.999878,120.172394 
z"/>
<path fill="#FFFFFF" opacity="1.000000" stroke="none" 
	d="
M271.997894,130.072174 
	C271.997894,136.531570 271.997894,142.498764 271.997894,148.729568 
	C267.971313,148.729568 264.239075,148.729568 260.251892,148.729568 
	C260.251892,127.935875 260.251892,107.205994 260.251892,86.268051 
	C270.715820,85.151093 281.003784,83.736023 291.416351,86.769402 
	C301.021301,89.567505 303.381500,95.746239 303.907471,102.054039 
	C304.496460,109.117477 299.478668,115.836891 292.344299,118.590881 
	C300.599518,124.886581 298.757507,124.313087 305.754913,148.627808 
	C305.614685,148.696274 305.474060,148.825485 305.334290,148.824585 
	C291.950867,148.739075 294.883301,151.856903 290.981659,138.209045 
	C290.493439,136.501297 290.099091,134.765533 289.575226,133.069305 
	C286.745087,123.905243 284.064819,122.371826 271.997894,123.304832 
	C271.997894,125.362572 271.997894,127.471260 271.997894,130.072174 
M277.482483,94.000000 
	C275.730865,94.000000 273.979279,94.000000 272.277557,94.000000 
	C272.277557,100.983315 272.277557,107.359627 272.277557,113.998344 
	C275.674103,113.998344 278.807495,114.169601 281.915039,113.959114 
	C286.855499,113.624481 291.534760,109.330185 291.998108,104.993431 
	C292.570374,99.636612 290.341492,96.110222 284.782166,94.399902 
	C282.805908,93.791916 280.545807,94.106544 277.482483,94.000000 
z"/>
<path fill="#FFFFFF" opacity="1.000000" stroke="none" 
	d="
M388.811768,130.467834 
	C384.632965,140.537933 378.234253,147.081284 367.384888,149.336533 
	C352.042328,152.525742 335.924408,143.788818 333.005737,126.251869 
	C331.188904,115.335373 332.416840,105.186913 338.689880,95.562042 
	C346.770203,83.164246 366.940033,80.161858 378.832916,89.363937 
	C389.622162,97.712044 391.971802,109.075569 390.055939,121.870514 
	C389.646942,124.601799 389.326843,127.346397 388.811768,130.467834 
M372.479675,96.997612 
	C371.782898,96.603714 371.064423,96.243454 370.392639,95.810776 
	C362.631012,90.811974 354.937012,92.200607 349.144592,99.290970 
	C343.196014,106.572388 343.417999,115.080833 344.363495,123.505386 
	C344.988556,129.074860 347.122711,134.542755 352.060059,137.964111 
	C361.108521,144.234299 372.405212,141.624878 376.896912,129.423492 
	C380.973083,118.350883 380.075928,107.485245 372.479675,96.997612 
z"/>
<path fill="#FFFFFF" opacity="1.000000" stroke="none" 
	d="
M459.300293,109.704979 
	C462.830688,120.310104 466.130249,130.576447 469.392822,140.854538 
	C470.224030,143.473099 470.937897,146.128922 471.744354,148.900497 
	C467.606171,148.900497 463.627319,148.900497 459.480011,148.900497 
	C457.504608,142.986633 455.537445,137.097305 453.540100,131.117676 
	C446.856262,131.117676 440.223236,131.117676 433.563141,131.117676 
	C432.106354,135.596817 430.237061,139.916519 429.371918,144.428757 
	C428.595825,148.476700 426.569611,149.403381 422.968750,149.037567 
	C420.832306,148.820526 418.655853,148.997849 416.076508,148.997849 
	C422.893921,127.581512 429.621063,106.448853 436.343201,85.311874 
	C436.653564,85.214600 436.972473,85.030441 437.283844,85.042381 
	C441.882721,85.218719 447.471313,83.908234 450.779358,86.074471 
	C453.658997,87.960182 454.011475,93.762688 455.391083,97.864555 
	C456.674133,101.679207 457.838898,105.533638 459.300293,109.704979 
M445.551514,101.042580 
	C444.869781,98.858017 444.188049,96.673454 443.432251,94.251633 
	C440.864166,103.531281 438.369202,112.546722 435.796326,121.843620 
	C441.418182,121.843620 446.469543,121.843620 451.407288,121.843620 
	C449.568481,115.074608 447.761505,108.422714 445.551514,101.042580 
z"/>
<path fill="#FFFFFF" opacity="1.000000" stroke="none" 
	d="
M782.002014,134.993469 
	C782.002014,118.194054 782.002014,101.892990 782.002014,85.297653 
	C794.308716,85.297653 806.371643,85.297653 818.717407,85.297653 
	C818.717407,88.335571 818.717407,91.401909 818.717407,94.907913 
	C810.634644,94.907913 802.560974,94.907913 794.246826,94.907913 
	C794.246826,100.735146 794.246826,106.133743 794.246826,111.969147 
	C802.096558,111.969147 809.839539,111.969147 817.783081,111.969147 
	C817.783081,115.133301 817.783081,117.863327 817.783081,120.851219 
	C809.961670,120.851219 802.343506,120.851219 794.362671,120.851219 
	C794.362671,126.822945 794.362671,132.561050 794.362671,138.741394 
	C802.855408,138.741394 811.593567,138.741394 820.662292,138.741394 
	C820.662292,142.229080 820.662292,145.297272 820.662292,148.685303 
	C808.079163,148.685303 795.345276,148.685303 782.002014,148.685303 
	C782.002014,144.352478 782.002014,139.922150 782.002014,134.993469 
z"/>
<path fill="#FFFFFF" opacity="1.000000" stroke="none" 
	d="
M617.223938,96.573090 
	C611.956909,95.570221 606.993103,94.103210 602.092224,94.289528 
	C599.673889,94.381470 595.840576,97.221970 595.414062,99.368500 
	C594.909668,101.906967 596.601135,106.129021 598.745605,107.684250 
	C603.077148,110.825676 608.400452,112.575119 613.236938,115.050514 
	C620.441650,118.738037 623.483093,125.027740 622.899414,132.767929 
	C622.285034,140.917145 617.008240,146.326370 609.692200,148.546097 
	C600.487488,151.338852 591.086853,150.739075 582.107422,145.978134 
	C582.927673,142.718018 583.697021,139.660202 584.303955,137.247955 
	C589.408936,138.142151 594.714417,139.094925 600.028748,139.995621 
	C605.191467,140.870636 610.590698,136.966675 611.092896,133.386459 
	C611.849915,127.989891 607.887024,124.602310 602.892883,121.966805 
	C597.670654,119.210907 592.101257,116.707359 587.676941,112.930023 
	C578.673889,105.243584 583.876099,92.441612 590.729736,88.142059 
	C598.947876,82.986511 607.866150,82.710052 616.845947,86.085472 
	C618.978333,86.887009 621.028809,88.212509 619.362366,91.309097 
	C618.464478,92.977608 618.137573,94.953392 617.223938,96.573090 
z"/>
<path fill="#FFFFFF" opacity="1.000000" stroke="none" 
	d="
M653.002441,88.183914 
	C653.952026,86.801468 654.817322,85.264503 655.866699,85.126427 
	C658.639832,84.761559 661.492615,85.002853 664.655518,85.002853 
	C664.655518,106.188080 664.655518,127.237549 664.655518,148.643036 
	C661.144226,148.643036 657.412476,148.643036 653.002136,148.643036 
	C653.002136,128.789749 653.002136,108.728401 653.002441,88.183914 
z"/>
<path fill="#0212A0" opacity="1.000000" stroke="none" 
	d="
M577.885498,368.296753 
	C587.602112,423.378693 563.483398,469.796906 512.623108,494.664307 
	C486.381470,507.494812 458.388214,513.812927 429.582458,516.824768 
	C416.343628,518.209045 402.993927,518.537720 389.692841,519.316711 
	C388.072601,519.411621 386.442047,519.329590 384.591156,519.329590 
	C384.591156,444.166107 384.591156,369.418823 384.591156,294.354279 
	C385.728058,294.255798 386.674347,294.102112 387.620636,294.102234 
	C416.450409,294.106445 445.294617,293.597717 474.103333,294.385223 
	C486.811218,294.732605 499.811951,296.389648 512.046387,299.754791 
	C547.087830,309.393158 569.337769,332.188324 577.885498,368.296753 
M502.500000,334.975311 
	C476.397461,334.975311 450.294922,334.975311 424.132446,334.975311 
	C424.132446,337.578094 424.132446,339.678345 424.132446,341.680298 
	C440.150452,348.497681 445.894928,355.941345 448.250580,373.072052 
	C448.724731,376.520416 448.873230,380.037262 448.877167,383.522858 
	C448.917297,418.995361 448.896301,454.467926 448.892426,489.940491 
	C448.892242,491.663086 448.892395,493.385681 448.892395,495.457977 
	C464.982941,492.685486 479.771301,488.375763 494.122009,482.430206 
	C497.215302,481.148651 498.177338,479.510101 498.164032,476.152435 
	C498.021729,440.180817 498.075256,404.208435 498.075134,368.236267 
	C498.075134,366.483582 498.075165,364.730927 498.075165,362.586853 
	C518.025085,362.586853 537.251404,362.586853 556.923584,362.586853 
	C553.223145,352.637543 548.048828,344.206940 541.213928,336.859467 
	C540.090576,335.651855 537.759277,335.082825 535.973633,335.056122 
	C525.151123,334.894226 514.324951,334.975342 502.500000,334.975311 
z"/>
<path fill="#00109F" opacity="1.000000" stroke="none" 
	d="
M343.993408,951.613892 
	C337.841400,963.034790 327.342682,960.794861 317.003906,960.952148 
	C317.003906,951.795044 316.901001,942.855347 317.148254,933.925415 
	C317.175812,932.930359 319.217865,931.140015 320.286285,931.169067 
	C325.502625,931.310669 330.920898,931.179749 335.866211,932.571838 
	C344.803375,935.087585 346.600800,945.036499 343.993408,951.613892 
z"/>
<path fill="#00109F" opacity="1.000000" stroke="none" 
	d="
M431.175934,972.000000 
	C429.225128,972.000000 427.752106,972.000000 425.703308,972.000000 
	C429.447327,958.898193 433.054718,946.274475 436.625031,933.780518 
	C440.369873,946.097046 444.205231,958.711182 448.245728,972.000000 
	C442.460266,972.000000 437.056976,972.000000 431.175934,972.000000 
z"/>
<path fill="#00109F" opacity="1.000000" stroke="none" 
	d="
M512.000000,123.998543 
	C512.000000,113.875465 512.000000,104.252182 512.000000,94.302010 
	C521.986816,93.479874 532.109497,92.796745 538.336975,102.114243 
	C544.530518,111.381058 543.648926,122.152489 538.559326,131.349915 
	C533.123169,141.173584 522.838745,141.949570 512.000000,140.681732 
	C512.000000,135.340240 512.000000,129.919296 512.000000,123.998543 
z"/>
<path fill="#00109F" opacity="1.000000" stroke="none" 
	d="
M739.998596,120.625404 
	C738.354248,128.953705 735.715088,136.458618 727.222229,139.085709 
	C721.916565,140.726898 716.149292,140.875580 710.226807,141.747330 
	C710.226807,125.239456 710.226807,109.859024 710.226807,94.125191 
	C719.139893,93.975586 728.002625,92.822411 734.931335,100.382751 
	C740.214783,106.147888 740.086731,113.124237 739.998596,120.625404 
z"/>
<path fill="#00109F" opacity="1.000000" stroke="none" 
	d="
M277.948883,94.000000 
	C280.545807,94.106544 282.805908,93.791916 284.782166,94.399902 
	C290.341492,96.110222 292.570374,99.636612 291.998108,104.993431 
	C291.534760,109.330185 286.855499,113.624481 281.915039,113.959114 
	C278.807495,114.169601 275.674103,113.998344 272.277557,113.998344 
	C272.277557,107.359627 272.277557,100.983315 272.277557,94.000000 
	C273.979279,94.000000 275.730865,94.000000 277.948883,94.000000 
z"/>
<path fill="#00109F" opacity="1.000000" stroke="none" 
	d="
M372.714111,97.298286 
	C380.075928,107.485245 380.973083,118.350883 376.896912,129.423492 
	C372.405212,141.624878 361.108521,144.234299 352.060059,137.964111 
	C347.122711,134.542755 344.988556,129.074860 344.363495,123.505386 
	C343.417999,115.080833 343.196014,106.572388 349.144592,99.290970 
	C354.937012,92.200607 362.631012,90.811974 370.392639,95.810776 
	C371.064423,96.243454 371.782898,96.603714 372.714111,97.298286 
z"/>
<path fill="#00109F" opacity="1.000000" stroke="none" 
	d="
M445.753021,101.406700 
	C447.761505,108.422714 449.568481,115.074608 451.407288,121.843620 
	C446.469543,121.843620 441.418182,121.843620 435.796326,121.843620 
	C438.369202,112.546722 440.864166,103.531281 443.432251,94.251633 
	C444.188049,96.673454 444.869781,98.858017 445.753021,101.406700 
z"/>
<path fill="#FEFEFE" opacity="1.000000" stroke="none" 
	d="
M503.000000,334.975311 
	C514.324951,334.975342 525.151123,334.894226 535.973633,335.056122 
	C537.759277,335.082825 540.090576,335.651855 541.213928,336.859467 
	C548.048828,344.206940 553.223145,352.637543 556.923584,362.586853 
	C537.251404,362.586853 518.025085,362.586853 498.075165,362.586853 
	C498.075165,364.730927 498.075134,366.483582 498.075134,368.236267 
	C498.075256,404.208435 498.021729,440.180817 498.164032,476.152435 
	C498.177338,479.510101 497.215302,481.148651 494.122009,482.430206 
	C479.771301,488.375763 464.982941,492.685486 448.892395,495.457977 
	C448.892395,493.385681 448.892242,491.663086 448.892426,489.940491 
	C448.896301,454.467926 448.917297,418.995361 448.877167,383.522858 
	C448.873230,380.037262 448.724731,376.520416 448.250580,373.072052 
	C445.894928,355.941345 440.150452,348.497681 424.132446,341.680298 
	C424.132446,339.678345 424.132446,337.578094 424.132446,334.975311 
	C450.294922,334.975311 476.397461,334.975311 503.000000,334.975311 
z"/>
</svg>